<?xml version="1.0" encoding="UTF-8"?>
<svg xmlns="http://www.w3.org/2000/svg" xmlns:xlink="http://www.w3.org/1999/xlink" width="1000px" height="348px" viewBox="0 0 1000 348" version="1.1">
<defs>
<clipPath id="clip1">
  <path d="M 399.066406 88.007812 L 998 88.007812 L 998 197.46875 L 399.066406 197.46875 Z M 399.066406 88.007812 "/>
</clipPath>
<clipPath id="clip2">
  <path d="M 399.066406 223.308594 L 750.757812 223.308594 L 750.757812 258.683594 L 399.066406 258.683594 Z M 399.066406 223.308594 "/>
</clipPath>
<clipPath id="clip3">
  <path d="M 0.695312 0 L 347.382812 0 L 347.382812 346.6875 L 0.695312 346.6875 Z M 0.695312 0 "/>
</clipPath>
<clipPath id="clip4">
  <path d="M 87.71875 70.839844 L 260.359375 70.839844 L 260.359375 275.847656 L 87.71875 275.847656 Z M 87.71875 70.839844 "/>
</clipPath>
</defs>
<g id="surface1">
<g clip-path="url(#clip1)" clip-rule="nonzero">
<path style=" stroke:none;fill-rule:nonzero;fill:rgb(0%,0%,0%);fill-opacity:1;" d="M 426.117188 174.992188 C 422.199219 174.992188 418.609375 174.667969 415.339844 174.019531 C 412.085938 173.375 409.183594 172.582031 406.628906 171.644531 C 404.074219 170.710938 401.949219 169.773438 400.246094 168.835938 L 399.171875 158.316406 C 402.441406 160.273438 406.296875 161.984375 410.742188 163.449219 C 415.203125 164.914062 420.046875 165.644531 425.273438 165.644531 C 431.574219 165.644531 436.230469 164.53125 439.242188 162.300781 C 442.273438 160.070312 443.789062 156.714844 443.789062 152.238281 L 443.789062 151.242188 C 443.789062 148.296875 443.191406 145.886719 442 144.011719 C 440.808594 142.140625 438.800781 140.566406 435.972656 139.289062 C 433.148438 138.011719 429.308594 136.820312 424.457031 135.714844 C 418.328125 134.265625 413.414062 132.554688 409.71875 130.578125 C 406.042969 128.585938 403.386719 126.101562 401.753906 123.121094 C 400.117188 120.144531 399.300781 116.441406 399.300781 112.011719 L 399.300781 111.449219 C 399.300781 104.761719 401.488281 99.601562 405.863281 95.972656 C 410.257812 92.332031 416.898438 90.507812 425.785156 90.507812 C 431.625 90.507812 436.597656 91.105469 440.699219 92.296875 C 444.800781 93.488281 448.15625 94.808594 450.761719 96.253906 L 451.707031 105.960938 C 448.691406 104.171875 445.167969 102.648438 441.132812 101.386719 C 437.113281 100.128906 432.507812 99.5 427.316406 99.5 C 423.195312 99.5 419.851562 99.992188 417.28125 100.980469 C 414.742188 101.949219 412.894531 103.355469 411.738281 105.195312 C 410.597656 107.015625 410.027344 109.230469 410.027344 111.835938 L 410.027344 112.089844 C 410.027344 114.726562 410.589844 116.984375 411.710938 118.855469 C 412.835938 120.730469 414.8125 122.347656 417.636719 123.710938 C 420.480469 125.070312 424.515625 126.390625 429.742188 127.667969 C 435.753906 129.0625 440.5625 130.683594 444.171875 132.519531 C 447.800781 134.34375 450.429688 136.726562 452.0625 139.671875 C 453.699219 142.601562 454.515625 146.429688 454.515625 151.164062 L 454.515625 152.519531 C 454.515625 159.871094 452.140625 165.457031 447.390625 169.269531 C 442.65625 173.085938 435.566406 174.992188 426.117188 174.992188 Z M 467.921875 111.195312 L 478.191406 111.195312 L 478.191406 149.964844 C 478.191406 153.234375 478.648438 156.09375 479.570312 158.542969 C 480.488281 160.996094 481.988281 162.886719 484.0625 164.214844 C 486.160156 165.558594 488.96875 166.230469 492.492188 166.230469 C 495.8125 166.230469 498.664062 165.628906 501.046875 164.417969 C 503.429688 163.191406 505.378906 161.515625 506.894531 159.386719 C 508.410156 157.257812 509.441406 154.859375 509.984375 152.1875 L 511.851562 159.515625 L 509.601562 159.515625 C 508.972656 162.324219 507.808594 164.894531 506.105469 167.226562 C 504.402344 169.542969 502.113281 171.390625 499.234375 172.769531 C 496.355469 174.167969 492.816406 174.863281 488.609375 174.863281 C 483.707031 174.863281 479.730469 173.9375 476.683594 172.082031 C 473.652344 170.226562 471.429688 167.515625 470.019531 163.960938 C 468.621094 160.402344 467.921875 156.109375 467.921875 151.085938 Z M 509.550781 111.195312 L 519.894531 111.195312 L 519.894531 173.511719 L 509.550781 173.511719 L 509.984375 158.570312 L 509.550781 157.933594 Z M 588.773438 173.511719 L 578.429688 173.511719 L 578.429688 134.742188 C 578.429688 131.386719 577.972656 128.503906 577.050781 126.085938 C 576.148438 123.648438 574.660156 121.761719 572.582031 120.414062 C 570.523438 119.070312 567.703125 118.398438 564.128906 118.398438 C 560.859375 118.398438 558.015625 119.019531 555.597656 120.261719 C 553.199219 121.488281 551.257812 123.15625 549.777344 125.265625 C 548.277344 127.378906 547.230469 129.78125 546.632812 132.46875 L 544.796875 125.113281 L 547.019531 125.113281 C 547.699219 122.304688 548.890625 119.742188 550.59375 117.425781 C 552.296875 115.09375 554.585938 113.238281 557.464844 111.859375 C 560.339844 110.480469 563.863281 109.789062 568.035156 109.789062 C 572.972656 109.789062 576.957031 110.726562 579.988281 112.601562 C 583.035156 114.472656 585.265625 117.164062 586.679688 120.671875 C 588.074219 124.179688 588.773438 128.484375 588.773438 133.59375 Z M 547.09375 173.511719 L 536.75 173.511719 L 536.75 111.195312 L 547.09375 111.195312 L 546.632812 126.136719 L 547.09375 126.722656 Z M 615.335938 173.511719 L 604.992188 173.511719 L 604.992188 111.195312 L 615.335938 111.195312 Z M 610.148438 100.980469 C 608.023438 100.980469 606.4375 100.417969 605.398438 99.292969 C 604.359375 98.152344 603.84375 96.605469 603.84375 94.644531 L 603.84375 94.339844 C 603.84375 92.332031 604.359375 90.773438 605.398438 89.667969 C 606.4375 88.558594 608.023438 88.007812 610.148438 88.007812 C 612.277344 88.007812 613.878906 88.558594 614.953125 89.667969 C 616.007812 90.773438 616.535156 92.332031 616.535156 94.339844 L 616.535156 94.644531 C 616.535156 96.65625 616.007812 98.214844 614.953125 99.320312 C 613.878906 100.425781 612.277344 100.980469 610.148438 100.980469 Z M 643.042969 173.511719 L 632.753906 173.511719 L 632.753906 88.898438 L 643.042969 88.898438 Z M 690.980469 91.914062 L 707.070312 91.914062 L 740.195312 162.144531 L 740.960938 162.144531 L 740.527344 126.519531 L 740.527344 91.914062 L 750.871094 91.914062 L 750.871094 173.511719 L 735.164062 173.511719 L 701.628906 102.691406 L 700.863281 102.691406 L 701.324219 139.976562 L 701.324219 173.511719 L 690.980469 173.511719 Z M 816.171875 173.511719 L 805.878906 173.511719 L 806.339844 158.367188 L 805.957031 156.78125 L 805.957031 136.914062 L 806.007812 133.285156 C 806.007812 128.214844 804.722656 124.46875 802.152344 122.050781 C 799.582031 119.613281 795.503906 118.398438 789.917969 118.398438 C 785.457031 118.398438 781.363281 119.035156 777.632812 120.3125 C 773.90625 121.589844 770.59375 123.089844 767.699219 124.808594 L 768.671875 115.972656 C 770.289062 115 772.210938 114.039062 774.441406 113.085938 C 776.671875 112.113281 779.226562 111.316406 782.105469 110.683594 C 784.980469 110.039062 788.140625 109.714844 791.578125 109.714844 C 796.058594 109.714844 799.863281 110.257812 802.996094 111.347656 C 806.109375 112.4375 808.640625 114.003906 810.578125 116.046875 C 812.519531 118.089844 813.933594 120.558594 814.820312 123.453125 C 815.722656 126.347656 816.171875 129.582031 816.171875 133.160156 Z M 784.429688 174.863281 C 778.265625 174.863281 773.53125 173.359375 770.226562 170.34375 C 766.925781 167.347656 765.273438 163.058594 765.273438 157.472656 L 765.273438 155.632812 C 765.273438 149.878906 767.054688 145.589844 770.613281 142.761719 C 774.167969 139.933594 779.824219 137.96875 787.570312 136.863281 L 807.285156 134.054688 L 807.871094 141.585938 L 788.847656 144.320312 C 784.078125 145 780.671875 146.167969 778.628906 147.820312 C 776.585938 149.453125 775.566406 151.863281 775.566406 155.046875 L 775.566406 156.066406 C 775.566406 159.355469 776.578125 161.863281 778.605469 163.601562 C 780.613281 165.355469 783.644531 166.230469 787.695312 166.230469 C 791.273438 166.230469 794.335938 165.609375 796.890625 164.367188 C 799.445312 163.140625 801.503906 161.480469 803.070312 159.386719 C 804.65625 157.308594 805.71875 154.996094 806.265625 152.441406 L 807.871094 159.464844 L 805.878906 159.464844 C 805.285156 162.1875 804.167969 164.714844 802.535156 167.050781 C 800.902344 169.398438 798.609375 171.289062 795.664062 172.71875 C 792.738281 174.148438 788.992188 174.863281 784.429688 174.863281 Z M 856.269531 154.867188 C 847.789062 154.867188 841.285156 153.019531 836.757812 149.324219 C 832.226562 145.613281 829.964844 140.308594 829.964844 133.414062 L 829.964844 131.832031 C 829.964844 127.523438 830.839844 123.769531 832.59375 120.570312 C 834.363281 117.382812 837.191406 114.890625 841.074219 113.085938 C 844.9375 111.265625 850.003906 110.269531 856.269531 110.097656 L 888.066406 109.074219 L 888.066406 117.25 L 869.292969 116.609375 L 869.21875 117.070312 C 872.164062 117.664062 874.5625 118.6875 876.417969 120.132812 C 878.308594 121.582031 879.707031 123.386719 880.609375 125.546875 C 881.527344 127.726562 881.988281 130.265625 881.988281 133.160156 L 881.988281 134.5625 C 881.988281 141.152344 879.816406 146.183594 875.472656 149.65625 C 871.132812 153.128906 864.730469 154.867188 856.269531 154.867188 Z M 855.808594 189.21875 L 857.265625 189.21875 C 861.097656 189.21875 864.390625 188.925781 867.148438 188.347656 C 869.890625 187.785156 872.007812 186.882812 873.507812 185.640625 C 874.988281 184.414062 875.730469 182.78125 875.730469 180.738281 L 875.730469 180.484375 C 875.730469 178.097656 874.871094 176.277344 873.152344 175.015625 C 871.429688 173.757812 868.476562 172.933594 864.289062 172.539062 L 846.691406 170.957031 L 849.601562 170.828125 C 847.238281 171.167969 845.144531 171.722656 843.320312 172.488281 C 841.515625 173.253906 840.101562 174.269531 839.082031 175.527344 C 838.058594 176.789062 837.550781 178.355469 837.550781 180.226562 L 837.550781 180.355469 C 837.550781 182.515625 838.296875 184.261719 839.796875 185.589844 C 841.277344 186.902344 843.378906 187.839844 846.105469 188.398438 C 848.828125 188.945312 852.0625 189.21875 855.808594 189.21875 Z M 857.085938 197.464844 L 855.246094 197.464844 C 849.628906 197.464844 844.785156 196.980469 840.714844 196.011719 C 836.648438 195.058594 833.496094 193.507812 831.265625 191.363281 C 829.019531 189.21875 827.894531 186.332031 827.894531 182.703125 L 827.894531 182.449219 C 827.894531 179.894531 828.507812 177.765625 829.734375 176.066406 C 830.941406 174.363281 832.578125 173.015625 834.636719 172.03125 C 836.714844 171.058594 839.03125 170.402344 841.585938 170.0625 L 841.507812 169.679688 C 838.015625 169.082031 835.445312 168.054688 833.792969 166.589844 C 832.125 165.109375 831.292969 163.203125 831.292969 160.867188 L 831.292969 160.792969 C 831.292969 159.175781 831.667969 157.796875 832.414062 156.65625 C 833.164062 155.496094 834.289062 154.578125 835.785156 153.898438 C 837.300781 153.214844 839.234375 152.789062 841.585938 152.621094 L 841.585938 151.34375 L 853.433594 154.355469 L 848.609375 154.230469 C 845.714844 154.261719 843.703125 154.613281 842.582031 155.277344 C 841.492188 155.941406 840.945312 156.925781 840.945312 158.238281 L 840.945312 158.316406 C 840.945312 159.710938 841.730469 160.773438 843.296875 161.507812 C 844.878906 162.222656 847.558594 162.792969 851.339844 163.21875 L 866.484375 164.75 C 873.074219 165.433594 877.875 167.023438 880.890625 169.527344 C 883.917969 172.011719 885.433594 175.679688 885.433594 180.535156 L 885.433594 180.867188 C 885.433594 184.730469 884.285156 187.898438 881.988281 190.367188 C 879.6875 192.835938 876.4375 194.632812 872.230469 195.753906 C 868.007812 196.894531 862.960938 197.464844 857.085938 197.464844 Z M 856.140625 147.207031 C 859.71875 147.207031 862.679688 146.6875 865.027344 145.648438 C 867.394531 144.59375 869.183594 143.015625 870.390625 140.921875 C 871.617188 138.8125 872.230469 136.222656 872.230469 133.160156 L 872.230469 131.625 C 872.230469 128.648438 871.644531 126.109375 870.46875 124.015625 C 869.292969 121.9375 867.539062 120.355469 865.207031 119.265625 C 862.859375 118.175781 859.921875 117.632812 856.398438 117.632812 L 855.988281 117.632812 C 852.15625 117.632812 849.042969 118.21875 846.640625 119.394531 C 844.242188 120.570312 842.496094 122.210938 841.40625 124.324219 C 840.332031 126.417969 839.796875 128.867188 839.796875 131.679688 L 839.796875 133.160156 C 839.796875 136.222656 840.402344 138.792969 841.609375 140.871094 C 842.820312 142.964844 844.632812 144.539062 847.050781 145.597656 C 849.484375 146.667969 852.515625 147.207031 856.140625 147.207031 Z M 944.683594 173.511719 L 934.394531 173.511719 L 934.851562 158.367188 L 934.46875 156.78125 L 934.46875 136.914062 L 934.519531 133.285156 C 934.519531 128.214844 933.234375 124.46875 930.664062 122.050781 C 928.09375 119.613281 924.015625 118.398438 918.429688 118.398438 C 913.96875 118.398438 909.875 119.035156 906.148438 120.3125 C 902.417969 121.589844 899.105469 123.089844 896.210938 124.808594 L 897.183594 115.972656 C 898.800781 115 900.722656 114.039062 902.953125 113.085938 C 905.183594 112.113281 907.738281 111.316406 910.617188 110.683594 C 913.492188 110.039062 916.652344 109.714844 920.089844 109.714844 C 924.570312 109.714844 928.367188 110.257812 931.480469 111.347656 C 934.613281 112.4375 937.152344 114.003906 939.09375 116.046875 C 941.03125 118.089844 942.445312 120.558594 943.332031 123.453125 C 944.234375 126.347656 944.683594 129.582031 944.683594 133.160156 Z M 912.941406 174.863281 C 906.777344 174.863281 902.042969 173.359375 898.742188 170.34375 C 895.4375 167.347656 893.785156 163.058594 893.785156 157.472656 L 893.785156 155.632812 C 893.785156 149.878906 895.566406 145.589844 899.125 142.761719 C 902.683594 139.933594 908.335938 137.96875 916.082031 136.863281 L 935.796875 134.054688 L 936.386719 141.585938 L 917.359375 144.320312 C 912.589844 145 909.1875 146.167969 907.144531 147.820312 C 905.101562 149.453125 904.078125 151.863281 904.078125 155.046875 L 904.078125 156.066406 C 904.078125 159.355469 905.089844 161.863281 907.117188 163.601562 C 909.125 165.355469 912.15625 166.230469 916.210938 166.230469 C 919.785156 166.230469 922.847656 165.609375 925.402344 164.367188 C 927.957031 163.140625 930.015625 161.480469 931.582031 159.386719 C 933.167969 157.308594 934.230469 154.996094 934.777344 152.441406 L 936.386719 159.464844 L 934.394531 159.464844 C 933.796875 162.1875 932.683594 164.714844 931.046875 167.050781 C 929.414062 169.398438 927.121094 171.289062 924.175781 172.71875 C 921.25 174.148438 917.503906 174.863281 912.941406 174.863281 Z M 970.351562 135.382812 L 967.976562 127.414062 L 970.53125 127.285156 C 971.890625 122.007812 974.234375 117.84375 977.554688 114.796875 C 980.875 111.75 985.285156 110.226562 990.78125 110.226562 C 992.128906 110.226562 993.34375 110.335938 994.433594 110.558594 C 995.523438 110.761719 996.496094 111.015625 997.347656 111.324219 L 997.984375 121.335938 C 996.914062 120.992188 995.730469 120.722656 994.433594 120.515625 C 993.140625 120.296875 991.710938 120.183594 990.144531 120.183594 C 985.460938 120.183594 981.382812 121.488281 977.910156 124.09375 C 974.4375 126.699219 971.917969 130.460938 970.351562 135.382812 Z M 970.835938 173.511719 L 960.519531 173.511719 L 960.519531 111.195312 L 970.605469 111.195312 L 970.097656 129.582031 L 970.835938 130.351562 Z M 970.835938 173.511719 "/>
</g>
<g clip-path="url(#clip2)" clip-rule="nonzero">
<path style=" stroke:none;fill-rule:nonzero;fill:rgb(0%,0%,0%);fill-opacity:1;" d="M 402.625 224.308594 L 402.625 251.390625 L 399.109375 251.390625 L 399.109375 224.308594 Z M 415.0625 237.109375 L 415.0625 240.050781 L 401.101562 240.050781 L 401.101562 237.109375 Z M 415.382812 224.308594 L 415.382812 227.25 L 400.125 227.25 L 400.125 224.308594 Z M 419.65625 243.949219 L 419.65625 230.707031 L 423.074219 230.707031 L 423.074219 243.574219 C 423.074219 244.660156 423.226562 245.609375 423.53125 246.425781 C 423.832031 247.238281 424.328125 247.863281 425.023438 248.304688 C 425.710938 248.753906 426.644531 248.976562 427.820312 248.976562 C 428.921875 248.976562 429.867188 248.773438 430.660156 248.375 C 431.453125 247.964844 432.097656 247.410156 432.59375 246.703125 C 433.097656 245.996094 433.441406 245.199219 433.628906 244.3125 L 434.238281 246.746094 L 433.5 246.746094 C 433.285156 247.679688 432.894531 248.53125 432.332031 249.304688 C 431.765625 250.074219 431.007812 250.6875 430.058594 251.144531 C 429.101562 251.609375 427.925781 251.839844 426.523438 251.839844 C 424.902344 251.839844 423.585938 251.53125 422.574219 250.917969 C 421.5625 250.300781 420.824219 249.402344 420.359375 248.222656 C 419.890625 247.039062 419.65625 245.617188 419.65625 243.949219 Z M 433.476562 246.21875 L 433.476562 230.707031 L 436.90625 230.707031 L 436.90625 251.390625 L 433.476562 251.390625 L 433.628906 246.433594 Z M 446.019531 223.308594 L 446.019531 251.390625 L 442.605469 251.390625 L 442.605469 223.308594 Z M 455.234375 223.308594 L 455.234375 251.390625 L 451.828125 251.390625 L 451.828125 223.308594 Z M 477.589844 251.859375 C 475.921875 251.859375 474.464844 251.675781 473.222656 251.316406 C 471.980469 250.953125 470.949219 250.5625 470.128906 250.136719 L 469.816406 246.957031 C 470.84375 247.496094 471.976562 247.960938 473.214844 248.355469 C 474.453125 248.753906 475.855469 248.949219 477.417969 248.949219 C 479.019531 248.949219 480.21875 248.695312 481.023438 248.1875 C 481.832031 247.683594 482.234375 246.929688 482.234375 245.921875 L 482.234375 245.6875 C 482.234375 245.035156 482.082031 244.5 481.777344 244.074219 C 481.472656 243.652344 480.921875 243.277344 480.132812 242.957031 C 479.339844 242.628906 478.21875 242.304688 476.765625 241.980469 C 475.027344 241.597656 473.65625 241.148438 472.65625 240.632812 C 471.648438 240.121094 470.933594 239.480469 470.503906 238.71875 C 470.074219 237.957031 469.859375 237.023438 469.859375 235.921875 L 469.859375 235.726562 C 469.859375 233.917969 470.484375 232.546875 471.738281 231.613281 C 473 230.683594 474.894531 230.214844 477.417969 230.214844 C 479.046875 230.214844 480.457031 230.398438 481.648438 230.765625 C 482.84375 231.132812 483.820312 231.542969 484.582031 231.996094 L 484.90625 234.902344 C 483.984375 234.367188 482.929688 233.921875 481.742188 233.5625 C 480.554688 233.214844 479.222656 233.039062 477.742188 233.039062 C 476.667969 233.039062 475.796875 233.148438 475.128906 233.371094 C 474.46875 233.585938 473.988281 233.894531 473.691406 234.300781 C 473.394531 234.703125 473.25 235.1875 473.25 235.75 L 473.25 235.921875 C 473.25 236.542969 473.394531 237.066406 473.691406 237.496094 C 473.988281 237.925781 474.523438 238.304688 475.292969 238.625 C 476.058594 238.941406 477.132812 239.246094 478.503906 239.539062 C 480.269531 239.898438 481.667969 240.320312 482.710938 240.8125 C 483.75 241.308594 484.496094 241.9375 484.945312 242.695312 C 485.398438 243.445312 485.625 244.414062 485.625 245.601562 L 485.625 245.964844 C 485.625 247.914062 484.945312 249.386719 483.589844 250.375 C 482.234375 251.363281 480.234375 251.859375 477.589844 251.859375 Z M 497.339844 251.816406 C 495.746094 251.816406 494.460938 251.574219 493.484375 251.09375 C 492.511719 250.613281 491.804688 249.886719 491.363281 248.90625 C 490.929688 247.9375 490.710938 246.71875 490.710938 245.261719 L 490.710938 232.207031 L 494.101562 232.207031 L 494.101562 244.863281 C 494.101562 246.21875 494.414062 247.222656 495.035156 247.863281 C 495.65625 248.503906 496.703125 248.824219 498.171875 248.824219 C 499 248.824219 499.800781 248.734375 500.570312 248.550781 C 501.34375 248.363281 502.070312 248.101562 502.75 247.761719 L 502.425781 250.714844 C 501.765625 251.050781 500.988281 251.320312 500.09375 251.519531 C 499.207031 251.714844 498.289062 251.816406 497.339844 251.816406 Z M 502.535156 231.003906 L 502.214844 233.757812 L 487.320312 233.757812 L 487.320312 231.003906 Z M 494.160156 225.085938 L 494.015625 231.34375 L 490.726562 231.34375 L 490.710938 225.535156 Z M 522.261719 237.996094 L 522.261719 251.390625 L 518.847656 251.390625 L 519 246.363281 L 518.871094 245.839844 L 518.871094 239.242188 L 518.890625 238.039062 C 518.890625 236.355469 518.460938 235.113281 517.609375 234.308594 C 516.753906 233.503906 515.402344 233.097656 513.546875 233.097656 C 512.066406 233.097656 510.707031 233.308594 509.472656 233.734375 C 508.234375 234.15625 507.132812 234.65625 506.171875 235.226562 L 506.496094 232.292969 C 507.03125 231.96875 507.671875 231.652344 508.410156 231.335938 C 509.152344 231.011719 510 230.746094 510.953125 230.539062 C 511.910156 230.324219 512.957031 230.214844 514.097656 230.214844 C 515.585938 230.214844 516.847656 230.398438 517.890625 230.757812 C 518.921875 231.121094 519.761719 231.640625 520.40625 232.316406 C 521.050781 232.996094 521.519531 233.816406 521.8125 234.777344 C 522.113281 235.738281 522.261719 236.8125 522.261719 237.996094 Z M 511.726562 251.839844 C 509.679688 251.839844 508.109375 251.339844 507.011719 250.339844 C 505.917969 249.34375 505.367188 247.921875 505.367188 246.066406 L 505.367188 245.457031 C 505.367188 243.546875 505.957031 242.125 507.140625 241.183594 C 508.320312 240.246094 510.195312 239.59375 512.769531 239.226562 L 519.3125 238.292969 L 519.507812 240.796875 L 513.191406 241.703125 C 511.609375 241.929688 510.480469 242.316406 509.800781 242.863281 C 509.125 243.40625 508.785156 244.207031 508.785156 245.261719 L 508.785156 245.601562 C 508.785156 246.691406 509.121094 247.527344 509.792969 248.101562 C 510.460938 248.683594 511.464844 248.976562 512.8125 248.976562 C 513.996094 248.976562 515.015625 248.769531 515.863281 248.355469 C 516.710938 247.949219 517.394531 247.398438 517.914062 246.703125 C 518.441406 246.015625 518.792969 245.246094 518.972656 244.398438 L 519.507812 246.730469 L 518.847656 246.730469 C 518.648438 247.632812 518.277344 248.472656 517.734375 249.246094 C 517.195312 250.027344 516.433594 250.652344 515.457031 251.128906 C 514.484375 251.601562 513.242188 251.839844 511.726562 251.839844 Z M 535.488281 251.859375 C 532.519531 251.859375 530.308594 251.054688 528.859375 249.449219 C 527.410156 247.84375 526.6875 245.574219 526.6875 242.632812 L 526.6875 239.414062 C 526.6875 236.464844 527.417969 234.195312 528.875 232.605469 C 530.328125 231.011719 532.53125 230.214844 535.488281 230.214844 C 536.363281 230.214844 537.160156 230.296875 537.878906 230.460938 C 538.601562 230.625 539.246094 230.835938 539.820312 231.097656 C 540.390625 231.359375 540.871094 231.628906 541.269531 231.910156 L 541.566406 234.902344 C 540.902344 234.394531 540.117188 233.960938 539.199219 233.605469 C 538.289062 233.257812 537.222656 233.082031 535.996094 233.082031 C 534.019531 233.082031 532.542969 233.628906 531.570312 234.726562 C 530.605469 235.816406 530.121094 237.40625 530.121094 239.5 L 530.121094 242.550781 C 530.121094 244.601562 530.605469 246.179688 531.570312 247.28125 C 532.542969 248.382812 534.019531 248.933594 535.996094 248.933594 C 537.265625 248.933594 538.363281 248.753906 539.285156 248.398438 C 540.210938 248.046875 541.035156 247.621094 541.761719 247.109375 L 541.4375 250.136719 C 540.816406 250.5625 540.003906 250.953125 539.003906 251.316406 C 538 251.675781 536.828125 251.859375 535.488281 251.859375 Z M 553.6875 239.863281 L 563.453125 251.390625 L 559.339844 251.390625 L 551.160156 241.746094 L 548.980469 241.746094 L 548.980469 239.074219 L 551.160156 239.074219 L 559.003906 230.707031 L 563.070312 230.707031 L 553.6875 240.683594 Z M 549.320312 223.308594 L 549.320312 251.390625 L 545.90625 251.390625 L 545.90625 223.308594 Z M 583.882812 251.839844 C 581.394531 251.839844 579.503906 251.070312 578.203125 249.527344 C 576.902344 247.984375 576.253906 245.738281 576.253906 242.789062 L 576.253906 239.371094 C 576.253906 236.402344 576.910156 234.140625 578.21875 232.582031 C 579.535156 231.019531 581.472656 230.242188 584.027344 230.242188 C 585.296875 230.242188 586.398438 230.457031 587.332031 230.886719 C 588.265625 231.316406 589.023438 231.917969 589.605469 232.699219 C 590.179688 233.472656 590.566406 234.390625 590.765625 235.453125 L 591.894531 235.453125 L 590.875 238.609375 C 590.832031 237.394531 590.558594 236.371094 590.0625 235.546875 C 589.558594 234.722656 588.878906 234.097656 588.027344 233.675781 C 587.167969 233.25 586.1875 233.039062 585.085938 233.039062 C 583.335938 233.039062 581.996094 233.546875 581.078125 234.566406 C 580.148438 235.582031 579.6875 237.078125 579.6875 239.058594 L 579.6875 243 C 579.6875 244.949219 580.148438 246.433594 581.078125 247.449219 C 581.996094 248.46875 583.335938 248.976562 585.085938 248.976562 C 586.132812 248.976562 587.058594 248.773438 587.867188 248.375 C 588.667969 247.964844 589.335938 247.40625 589.867188 246.695312 C 590.398438 245.984375 590.761719 245.175781 590.960938 244.269531 L 591.808594 246.730469 L 590.789062 246.730469 C 590.59375 247.660156 590.214844 248.515625 589.65625 249.289062 C 589.09375 250.070312 588.347656 250.6875 587.410156 251.144531 C 586.46875 251.609375 585.296875 251.839844 583.882812 251.839844 Z M 594.222656 223.308594 L 594.222656 251.390625 L 590.789062 251.390625 L 590.933594 246.390625 L 590.875 245.289062 L 590.875 236.640625 L 590.894531 235.921875 L 590.808594 230.046875 L 590.808594 223.308594 Z M 608.507812 251.859375 C 605.355469 251.859375 602.980469 251.085938 601.386719 249.542969 C 599.789062 248.007812 598.988281 245.800781 598.988281 242.929688 L 598.988281 239.242188 C 598.988281 236.332031 599.730469 234.09375 601.21875 232.523438 C 602.699219 230.945312 604.867188 230.15625 607.71875 230.15625 C 609.640625 230.15625 611.246094 230.511719 612.535156 231.226562 C 613.816406 231.9375 614.785156 232.949219 615.433594 234.269531 C 616.082031 235.578125 616.410156 237.148438 616.410156 238.972656 L 616.410156 239.734375 C 616.410156 240.1875 616.390625 240.640625 616.359375 241.09375 C 616.324219 241.542969 616.277344 241.988281 616.222656 242.421875 L 613.058594 242.421875 C 613.089844 241.746094 613.105469 241.101562 613.109375 240.5 C 613.121094 239.886719 613.128906 239.328125 613.128906 238.820312 C 613.128906 237.566406 612.925781 236.503906 612.519531 235.632812 C 612.117188 234.761719 611.515625 234.097656 610.71875 233.640625 C 609.921875 233.183594 608.921875 232.953125 607.71875 232.953125 C 605.9375 232.953125 604.605469 233.46875 603.71875 234.496094 C 602.824219 235.53125 602.378906 237.007812 602.378906 238.929688 L 602.378906 240.898438 L 602.40625 241.320312 L 602.40625 243.296875 C 602.40625 244.15625 602.53125 244.933594 602.785156 245.628906 C 603.039062 246.316406 603.4375 246.914062 603.980469 247.414062 C 604.523438 247.917969 605.214844 248.300781 606.058594 248.558594 C 606.898438 248.820312 607.902344 248.949219 609.058594 248.949219 C 610.398438 248.949219 611.648438 248.773438 612.804688 248.425781 C 613.964844 248.070312 615.050781 247.589844 616.070312 246.984375 L 615.753906 249.949219 C 614.835938 250.527344 613.765625 250.988281 612.550781 251.339844 C 611.335938 251.683594 609.988281 251.859375 608.507812 251.859375 Z M 615.5 239.835938 L 615.5 242.421875 L 600.792969 242.421875 L 600.792969 239.835938 Z M 622.679688 230.707031 L 628.402344 249.035156 L 628.914062 249.035156 L 634.632812 230.707031 L 638.195312 230.707031 L 631.472656 251.390625 L 625.835938 251.390625 L 619.121094 230.707031 Z M 650.613281 251.859375 C 647.460938 251.859375 645.082031 251.085938 643.484375 249.542969 C 641.890625 248.007812 641.09375 245.800781 641.09375 242.929688 L 641.09375 239.242188 C 641.09375 236.332031 641.835938 234.09375 643.324219 232.523438 C 644.804688 230.945312 646.972656 230.15625 649.824219 230.15625 C 651.746094 230.15625 653.351562 230.511719 654.640625 231.226562 C 655.921875 231.9375 656.890625 232.949219 657.539062 234.269531 C 658.1875 235.578125 658.515625 237.148438 658.515625 238.972656 L 658.515625 239.734375 C 658.515625 240.1875 658.496094 240.640625 658.464844 241.09375 C 658.429688 241.542969 658.382812 241.988281 658.320312 242.421875 L 655.164062 242.421875 C 655.195312 241.746094 655.210938 241.101562 655.214844 240.5 C 655.226562 239.886719 655.234375 239.328125 655.234375 238.820312 C 655.234375 237.566406 655.03125 236.503906 654.621094 235.632812 C 654.222656 234.761719 653.621094 234.097656 652.824219 233.640625 C 652.027344 233.183594 651.027344 232.953125 649.824219 232.953125 C 648.042969 232.953125 646.707031 233.46875 645.816406 234.496094 C 644.929688 235.53125 644.484375 237.007812 644.484375 238.929688 L 644.484375 240.898438 L 644.511719 241.320312 L 644.511719 243.296875 C 644.511719 244.15625 644.636719 244.933594 644.890625 245.628906 C 645.144531 246.316406 645.542969 246.914062 646.085938 247.414062 C 646.628906 247.917969 647.320312 248.300781 648.164062 248.558594 C 649 248.820312 650 248.949219 651.164062 248.949219 C 652.503906 248.949219 653.753906 248.773438 654.910156 248.425781 C 656.070312 248.070312 657.15625 247.589844 658.175781 246.984375 L 657.859375 249.949219 C 656.941406 250.527344 655.871094 250.988281 654.65625 251.339844 C 653.441406 251.683594 652.09375 251.859375 650.613281 251.859375 Z M 657.605469 239.835938 L 657.605469 242.421875 L 642.898438 242.421875 L 642.898438 239.835938 Z M 666.609375 223.308594 L 666.609375 251.390625 L 663.191406 251.390625 L 663.191406 223.308594 Z M 680.527344 251.925781 C 677.5625 251.925781 675.3125 251.121094 673.78125 249.519531 C 672.25 247.914062 671.484375 245.605469 671.484375 242.59375 L 671.484375 239.4375 C 671.484375 236.445312 672.253906 234.144531 673.789062 232.546875 C 675.332031 230.953125 677.578125 230.15625 680.527344 230.15625 C 683.496094 230.15625 685.746094 230.953125 687.277344 232.546875 C 688.8125 234.144531 689.582031 236.445312 689.582031 239.4375 L 689.582031 242.59375 C 689.582031 245.605469 688.8125 247.914062 687.277344 249.519531 C 685.746094 251.121094 683.496094 251.925781 680.527344 251.925781 Z M 680.527344 249.121094 C 682.367188 249.121094 683.761719 248.578125 684.714844 247.492188 C 685.671875 246.402344 686.148438 244.832031 686.148438 242.789062 L 686.148438 239.242188 C 686.148438 237.210938 685.671875 235.652344 684.714844 234.574219 C 683.761719 233.492188 682.367188 232.953125 680.527344 232.953125 C 678.707031 232.953125 677.320312 233.492188 676.359375 234.574219 C 675.398438 235.652344 674.917969 237.210938 674.917969 239.242188 L 674.917969 242.789062 C 674.917969 244.832031 675.398438 246.402344 676.359375 247.492188 C 677.320312 248.578125 678.707031 249.121094 680.527344 249.121094 Z M 704.535156 251.839844 C 703.265625 251.839844 702.160156 251.625 701.230469 251.195312 C 700.296875 250.773438 699.542969 250.164062 698.964844 249.375 C 698.382812 248.582031 697.992188 247.664062 697.796875 246.617188 L 696.675781 246.617188 L 697.667969 243.398438 C 697.726562 244.640625 698.003906 245.679688 698.507812 246.507812 C 699.011719 247.332031 699.691406 247.949219 700.550781 248.355469 C 701.414062 248.769531 702.390625 248.976562 703.476562 248.976562 C 705.214844 248.976562 706.550781 248.46875 707.476562 247.449219 C 708.398438 246.433594 708.859375 244.941406 708.859375 242.972656 L 708.859375 239.015625 C 708.859375 237.066406 708.402344 235.582031 707.484375 234.566406 C 706.5625 233.546875 705.226562 233.039062 703.476562 233.039062 C 702.429688 233.039062 701.507812 233.242188 700.703125 233.648438 C 699.894531 234.0625 699.230469 234.621094 698.703125 235.328125 C 698.171875 236.035156 697.808594 236.839844 697.609375 237.742188 L 696.761719 235.34375 L 697.753906 235.34375 C 697.980469 234.402344 698.367188 233.542969 698.914062 232.777344 C 699.457031 232 700.207031 231.386719 701.160156 230.929688 C 702.109375 230.46875 703.285156 230.242188 704.6875 230.242188 C 707.175781 230.242188 709.066406 231.015625 710.367188 232.5625 C 711.667969 234.105469 712.316406 236.347656 712.316406 239.285156 L 712.316406 242.71875 C 712.316406 245.6875 711.664062 247.945312 710.359375 249.5 C 709.046875 251.0625 707.105469 251.839844 704.535156 251.839844 Z M 697.753906 251.96875 L 697.753906 258.683594 L 694.347656 258.683594 L 694.347656 230.707031 L 697.78125 230.707031 L 697.625 235.683594 L 697.667969 236.742188 L 697.667969 245.457031 L 697.652344 246.152344 Z M 725.796875 251.859375 C 722.640625 251.859375 720.269531 251.085938 718.675781 249.542969 C 717.074219 248.007812 716.277344 245.800781 716.277344 242.929688 L 716.277344 239.242188 C 716.277344 236.332031 717.019531 234.09375 718.503906 232.523438 C 719.984375 230.945312 722.152344 230.15625 725.007812 230.15625 C 726.929688 230.15625 728.535156 230.511719 729.824219 231.226562 C 731.105469 231.9375 732.070312 232.949219 732.722656 234.269531 C 733.371094 235.578125 733.695312 237.148438 733.695312 238.972656 L 733.695312 239.734375 C 733.695312 240.1875 733.679688 240.640625 733.644531 241.09375 C 733.613281 241.542969 733.566406 241.988281 733.511719 242.421875 L 730.347656 242.421875 C 730.375 241.746094 730.394531 241.101562 730.398438 240.5 C 730.410156 239.886719 730.414062 239.328125 730.414062 238.820312 C 730.414062 237.566406 730.210938 236.503906 729.804688 235.632812 C 729.402344 234.761719 728.804688 234.097656 728.007812 233.640625 C 727.210938 233.183594 726.210938 232.953125 725.007812 232.953125 C 723.226562 232.953125 721.894531 233.46875 721.007812 234.496094 C 720.113281 235.53125 719.667969 237.007812 719.667969 238.929688 L 719.667969 240.898438 L 719.691406 241.320312 L 719.691406 243.296875 C 719.691406 244.15625 719.820312 244.933594 720.074219 245.628906 C 720.328125 246.316406 720.726562 246.914062 721.269531 247.414062 C 721.8125 247.917969 722.503906 248.300781 723.347656 248.558594 C 724.1875 248.820312 725.1875 248.949219 726.347656 248.949219 C 727.6875 248.949219 728.933594 248.773438 730.09375 248.425781 C 731.253906 248.070312 732.339844 247.589844 733.355469 246.984375 L 733.042969 249.949219 C 732.121094 250.527344 731.054688 250.988281 729.839844 251.339844 C 728.625 251.683594 727.277344 251.859375 725.796875 251.859375 Z M 732.789062 239.835938 L 732.789062 242.421875 L 718.082031 242.421875 L 718.082031 239.835938 Z M 741.539062 238.734375 L 740.75 236.089844 L 741.597656 236.046875 C 742.050781 234.296875 742.824219 232.914062 743.929688 231.902344 C 745.03125 230.890625 746.492188 230.386719 748.320312 230.386719 C 748.769531 230.386719 749.179688 230.421875 749.539062 230.496094 C 749.894531 230.5625 750.214844 230.648438 750.496094 230.75 L 750.710938 234.074219 C 750.359375 233.960938 749.96875 233.871094 749.539062 233.800781 C 749.105469 233.726562 748.628906 233.691406 748.105469 233.691406 C 746.554688 233.691406 745.199219 234.125 744.046875 234.988281 C 742.894531 235.851562 742.058594 237.101562 741.539062 238.734375 Z M 741.707031 237.066406 L 741.707031 251.390625 L 738.273438 251.390625 L 738.273438 230.707031 L 741.621094 230.707031 L 741.453125 236.8125 Z M 741.707031 237.066406 "/>
</g>
<g clip-path="url(#clip3)" clip-rule="nonzero">
<path style="fill-rule:nonzero;fill:rgb(0%,0%,0%);fill-opacity:1;stroke-width:1;stroke-linecap:butt;stroke-linejoin:miter;stroke:rgb(100%,100%,100%);stroke-opacity:1;stroke-miterlimit:4;" d="M 0.000332472 114.453503 C 0.000332472 51.243064 51.243396 -0.000000000000017137 114.453836 -0.000000000000017137 C 177.664275 -0.000000000000017137 228.907339 51.243064 228.907339 114.453503 C 228.907339 177.663942 177.664275 228.907006 114.453836 228.907006 C 51.243396 228.907006 0.000332472 177.663942 0.000332472 114.453503 Z M 114.453836 222.389429 C 174.063746 222.389429 222.389762 174.065992 222.389762 114.453503 C 222.389762 54.843593 174.063746 6.517577 114.453836 6.517577 C 54.843926 6.517577 6.51791 54.843593 6.51791 114.453503 C 6.51791 174.065992 54.843926 222.389429 114.453836 222.389429 Z M 114.453836 222.389429 " transform="matrix(1.514534,0,0,1.514534,0.694809,0.000000000000025955)"/>
</g>
<g clip-path="url(#clip4)" clip-rule="nonzero">
<path style=" stroke:none;fill-rule:nonzero;fill:rgb(0%,0%,0%);fill-opacity:1;" d="M 190.222656 124.789062 L 103.90625 124.789062 C 94.964844 124.789062 87.71875 132.035156 87.71875 140.976562 L 87.71875 259.664062 C 87.71875 268.601562 94.964844 275.847656 103.90625 275.847656 L 190.222656 275.847656 C 199.160156 275.847656 206.40625 268.601562 206.410156 259.664062 L 206.410156 140.972656 C 206.40625 132.035156 199.160156 124.789062 190.222656 124.789062 M 217.195312 97.816406 L 130.878906 97.816406 C 121.941406 97.816406 114.695312 105.0625 114.691406 114 L 201.011719 114 C 209.949219 114.003906 217.195312 121.25 217.195312 130.1875 L 217.195312 248.875 C 226.136719 248.875 233.382812 241.628906 233.382812 232.6875 L 233.382812 114 C 233.378906 105.0625 226.132812 97.816406 217.195312 97.816406 M 244.171875 70.839844 L 157.855469 70.839844 C 148.914062 70.839844 141.671875 78.085938 141.667969 87.027344 L 227.988281 87.027344 C 236.925781 87.027344 244.171875 94.273438 244.171875 103.210938 L 244.171875 221.898438 C 253.113281 221.898438 260.355469 214.652344 260.359375 205.710938 L 260.359375 87.027344 C 260.355469 78.085938 253.109375 70.839844 244.171875 70.839844 "/>
</g>
</g>
</svg>
